<svg width="100" height="100" viewBox="0 0 100 100" fill="none" xmlns="http://www.w3.org/2000/svg">
<rect width="100" height="100" rx="10" fill="#00712D"/>
<g filter="url(#filter0_dd_2_17)">
<path d="M41.325 80H33.45C31.75 80 30.625 79.725 30.075 79.175C29.575 78.625 29.325 77.475 29.325 75.725V28.775C29.325 27.875 29.575 27.15 30.075 26.6C30.575 26.05 31.225 25.775 32.025 25.775H41.325V80ZM44.325 25.775H53.85C56.75 25.775 59.025 26 60.675 26.45C62.375 26.9 63.65 27.8 64.5 29.15C65.35 30.45 65.875 31.925 66.075 33.575C66.325 35.175 66.45 37.45 66.45 40.4C66.45 43.35 66.325 45.6 66.075 47.15C65.875 48.7 65.35 50.15 64.5 51.5C63.7 52.85 62.425 53.8 60.675 54.35C58.975 54.9 56.7 55.175 53.85 55.175H44.325V48.05H49.875C51.175 48.05 52 47.875 52.35 47.525C52.75 47.175 52.95 46.625 52.95 45.875V35.15C52.95 34.35 52.75 33.775 52.35 33.425C52 33.075 51.175 32.9 49.875 32.9H44.325V25.775ZM51.525 57.5H60.825C62.325 57.5 63.4 57.925 64.05 58.775C64.7 59.575 65.025 60.9 65.025 62.75V80H54.225C53.425 80 52.775 79.725 52.275 79.175C51.775 78.625 51.525 77.9 51.525 77V57.5Z" fill="#1CD766"/>
</g>
<path d="M68.0213 30C66.2223 29.8637 65.2818 29.1727 64.7987 28.406C64.8913 26.5393 65.1596 24.2144 65.9134 22.1044C66.3456 20.8962 66.959 19.8023 67.7114 18.9983C68.534 18.0399 69.2942 17.3024 70.06 16.6943C71.5718 15.5014 72.8981 14.9817 73.3178 14.7989C73.7423 14.6244 74.5035 14.2963 75.4246 13.9311C76.3428 13.5961 77.4549 13.1113 78.4042 12.5186C80.3504 11.3847 81.961 10.1048 81.961 10.1048C81.961 10.1048 80.2395 11.1237 78.2355 11.9691C77.2244 12.4283 76.1913 12.7302 75.227 12.968C74.2781 13.2281 73.4766 13.4928 73.0353 13.6747C72.2101 14.0418 67.2656 15.7275 64.7402 21.3782C64.1689 22.8214 63.8106 24.3145 63.5786 25.7135C63.0077 25.3702 62.297 24.7057 62.1034 23.476C61.766 21.3335 61.9538 14.9044 67.4219 11.3331C72.8904 7.76215 78.9956 8.47586 81.9174 7.42855C84.8388 6.38124 86 4 86 4C86 4 83.5653 28.238 68.0213 30Z" fill="#1CD766"/>
<defs>
<filter id="filter0_dd_2_17" x="25.325" y="22.875" width="45.125" height="65.125" filterUnits="userSpaceOnUse" color-interpolation-filters="sRGB">
<feFlood flood-opacity="0" result="BackgroundImageFix"/>
<feColorMatrix in="SourceAlpha" type="matrix" values="0 0 0 0 0 0 0 0 0 0 0 0 0 0 0 0 0 0 127 0" result="hardAlpha"/>
<feOffset dx="2" dy="-2"/>
<feGaussianBlur stdDeviation="0.45"/>
<feComposite in2="hardAlpha" operator="out"/>
<feColorMatrix type="matrix" values="0 0 0 0 1 0 0 0 0 0.6 0 0 0 0 0 0 0 0 1 0"/>
<feBlend mode="normal" in2="BackgroundImageFix" result="effect1_dropShadow_2_17"/>
<feColorMatrix in="SourceAlpha" type="matrix" values="0 0 0 0 0 0 0 0 0 0 0 0 0 0 0 0 0 0 127 0" result="hardAlpha"/>
<feOffset dy="4"/>
<feGaussianBlur stdDeviation="2"/>
<feComposite in2="hardAlpha" operator="out"/>
<feColorMatrix type="matrix" values="0 0 0 0 0 0 0 0 0 0 0 0 0 0 0 0 0 0 0.25 0"/>
<feBlend mode="normal" in2="effect1_dropShadow_2_17" result="effect2_dropShadow_2_17"/>
<feBlend mode="normal" in="SourceGraphic" in2="effect2_dropShadow_2_17" result="shape"/>
</filter>
</defs>
</svg>
