<svg width="18" height="18" viewBox="0 0 18 18" fill="none" xmlns="http://www.w3.org/2000/svg">
<path d="M10.4417 16.4998C10.2952 16.7524 10.0849 16.962 9.83185 17.1078C9.57884 17.2535 9.29198 17.3302 9 17.3302C8.70802 17.3302 8.42116 17.2535 8.16814 17.1078C7.91513 16.962 7.70484 16.7524 7.55833 16.4998M14 5.6665C14 4.34042 13.4732 3.06865 12.5355 2.13097C11.5979 1.19329 10.3261 0.666504 9 0.666504C7.67392 0.666504 6.40215 1.19329 5.46447 2.13097C4.52678 3.06865 4 4.34042 4 5.6665C4 11.4998 1.5 13.1665 1.5 13.1665H16.5C16.5 13.1665 14 11.4998 14 5.6665Z" stroke="#5D6679" stroke-width="1.2" stroke-linecap="round" stroke-linejoin="round"/>
</svg>
